<svg width="480" height="300" xmlns="http://www.w3.org/2000/svg">
 <defs>
  <style>.cls-1,.cls-10,.cls-11,.cls-12,.cls-13,.cls-14,.cls-15,.cls-16,.cls-18,.cls-19,.cls-4,.cls-6,.cls-7,.cls-8{fill:none;}.cls-2{fill:#d17c61;}.cls-3{clip-path:url(#clip-path);}.cls-4{stroke:#fbc0af;stroke-width:8px;stroke-dasharray:15;}.cls-10,.cls-11,.cls-15,.cls-16,.cls-18,.cls-19,.cls-4,.cls-6,.cls-7,.cls-8{stroke-linecap:round;}.cls-10,.cls-11,.cls-12,.cls-13,.cls-14,.cls-18,.cls-19,.cls-4,.cls-5,.cls-6,.cls-7,.cls-8,.cls-9{stroke-miterlimit:10;}.cls-17,.cls-5,.cls-9{fill:#f7956d;}.cls-10,.cls-11,.cls-12,.cls-13,.cls-14,.cls-15,.cls-16,.cls-18,.cls-19,.cls-5,.cls-6,.cls-7,.cls-8,.cls-9{stroke:#fff0d9;}.cls-12,.cls-13,.cls-14,.cls-5,.cls-6,.cls-7,.cls-8{stroke-width:4px;}.cls-7{stroke-dasharray:7.66 7.66;}.cls-8{stroke-dasharray:8;}.cls-10,.cls-11,.cls-16,.cls-18,.cls-19,.cls-9{stroke-width:6px;}.cls-11{stroke-dasharray:9.36 9.36;}.cls-13{stroke-dasharray:10.67 10.67;}.cls-14{stroke-dasharray:10.11 10.11;}.cls-15,.cls-16{stroke-linejoin:bevel;}.cls-15{stroke-width:12px;}.cls-18{stroke-dasharray:8.18 8.18;}.cls-19{stroke-dasharray:8.84 8.84;}</style>
  <clipPath id="clip-path">
   <rect class="cls-1" width="600" height="300" id="svg_1"/>
  </clipPath>
 </defs>
 <g>
  <title>background</title>
  <rect x="-1" y="-1" width="482" height="302" id="canvas_background" fill="none"/>
 </g>
 <g>
  <title>Layer 1</title>
  <g id="background">
   <rect class="cls-2" x="-60.270021" y="0.039773" width="600" height="300" id="svg_2"/>
  </g>
  <g id="background_the_second">
   <g class="cls-3" id="svg_3">
    <line class="cls-4" x1="5.419979" y1="-199.220227" x2="315.889979" y2="347.089773" id="svg_4"/>
    <line class="cls-4" x1="-140.600021" y1="139.689773" x2="590.049979" y2="179.989773" id="svg_5"/>
    <line class="cls-4" x1="122.379979" y1="339.329773" x2="355.099979" y2="-129.750227" id="svg_6"/>
   </g>
  </g>
  <g id="math_bullshit">
   <polygon class="cls-5" points="434.7599792480469,151.46978759765625 342.2601013183594,122.70977020263672 375.3001403808594,26.17976188659668 479.4798889160156,27.629783630371094 434.7599792480469,151.46978759765625 " id="svg_7"/>
   <line class="cls-6" x1="485.739979" y1="33.439773" x2="484.379979" y2="37.199773" id="svg_8"/>
   <line class="cls-7" x1="481.779979" y1="44.399773" x2="446.659979" y2="141.669773" id="svg_9"/>
   <line class="cls-6" x1="445.349979" y1="145.269773" x2="443.999979" y2="149.039773" id="svg_10"/>
   <line class="cls-8" x1="342.259979" y1="130.919773" x2="433.319979" y2="159.459773" id="svg_11"/>
   <line class="cls-8" x1="377.549979" y1="18.489773" x2="481.719979" y2="19.929773" id="svg_12"/>
   <line class="cls-8" x1="375.299979" y1="26.179773" x2="470.599979" y2="52.199773" id="svg_13"/>
   <path class="cls-9" d="m24.379984,127.72977a54.71,54.71 0 1 1 43.77,-63.8a54.73,54.73 0 0 1 -43.77,63.8z" id="svg_14"/>
   <line class="cls-10" x1="68.159979" y1="63.919773" x2="64.239979" y2="64.719773" id="svg_15"/>
   <line class="cls-11" x1="55.059979" y1="66.579773" x2="22.959979" y2="73.099773" id="svg_16"/>
   <line class="cls-10" x1="18.369979" y1="74.029773" x2="14.449979" y2="74.819773" id="svg_17"/>
   <line class="cls-10" x1="19.819979" y1="128.389773" x2="8.909979" y2="19.489773" id="svg_18"/>
   <polygon class="cls-5" points="77.39997863769531,175.2397918701172 20.250015258789062,274.3597412109375 100.88002014160156,248.52978515625 77.39997863769531,175.2397918701172 " id="svg_19"/>
   <polyline class="cls-12" points="-2.8600311279296875,202.2198028564453 -4.3900299072265625,197.4597625732422 0.3699493408203125,195.9397735595703 " id="svg_20"/>
   <line class="cls-13" x1="10.529979" y1="192.679773" x2="66.399979" y2="174.779773" id="svg_21"/>
   <polyline class="cls-12" points="71.47999572753906,173.14979553222656 76.23994445800781,171.6197967529297 77.76002502441406,176.38978576660156 " id="svg_22"/>
   <line class="cls-14" x1="80.849979" y1="186.009773" x2="97.809979" y2="238.949773" id="svg_23"/>
   <polyline class="cls-12" points="99.36000061035156,243.759765625 100.88002014160156,248.52978515625 96.12001037597656,250.04974365234375 " id="svg_24"/>
   <line class="cls-13" x1="85.959979" y1="253.309773" x2="30.089979" y2="271.209773" id="svg_25"/>
   <polyline class="cls-12" points="25.019912719726562,272.83978271484375 20.250015258789062,274.3597412109375 18.729995727539062,269.5997314453125 " id="svg_26"/>
   <line class="cls-14" x1="15.639979" y1="259.979773" x2="-1.320021" y2="207.039773" id="svg_27"/>
   <path class="cls-15" d="m394.179984,215.62977c7.17,-9.64 5.25,-9.34 13.47,-18.54l2.34,-2.62a12.36,12.36 0 0 1 10.74,-4.18l0,0l66,8.26" id="svg_28"/>
   <path class="cls-15" d="m427.899984,191.18977l-7.17,57.39a20.24,20.24 0 0 1 -6.44,12.51l0,0" id="svg_29"/>
   <path class="cls-15" d="m472.859984,196.80977l-7.46,59.61a21.7,21.7 0 0 0 1.83,11.84l0,0a1.16,1.16 0 0 0 1.53,0.6l0,0c1,1.24 18.5,0.11 23.42,-23.63" id="svg_30"/>
  </g>
  <g id="dango">
   <path class="cls-9" d="m358.979984,285.83977a9.49,9.49 0 0 1 -6.7,-2.77l-236.55,-236.53a9.48,9.48 0 0 1 13.4,-13.4l236.6,236.52a9.48,9.48 0 0 1 -6.7,16.18l-0.05,0z" id="svg_31"/>
   <path class="cls-9" d="m215.239984,80.03977a52.12,52.12 0 1 1 -52.11,-52.14a52.11,52.11 0 0 1 52.11,52.14z" id="svg_32"/>
   <path class="cls-16" d="m142.499984,85.93977c-0.79,-4.5 -1.21,-3.89 -1.6,-8.57l-0.11,-1.33a4.7,4.7 0 0 1 1.66,-4.06l0,0l19.52,-16.06" id="svg_33"/>
   <path class="cls-16" d="m144.569984,70.23977l14,17a7.73,7.73 0 0 1 1.77,5l0,0" id="svg_34"/>
   <path class="cls-16" d="m157.869984,59.29977l14.5,17.64a8.35,8.35 0 0 0 3.75,2.59l0,0a0.43,0.43 0 0 0 0.56,-0.27l0,0c0.59,0.06 5.07,-6.48 1.23,-10.51" id="svg_35"/>
   <circle class="cls-17" cx="189.65998" cy="305.209769" r="52.119999" transform="rotate(-31.709999084472656 -90.61001586914062,167.86976623535156) " id="svg_36"/>
   <path class="cls-18" d="m208.019984,188.09977a52.13,52.13 0 0 1 -38.75,-62.7c18.56,-66.65 114.67,-43.94 101.45,24a52.11,52.11 0 0 1 -62.7,38.74l0,-0.04z" id="svg_37"/>
   <path class="cls-9" d="m314.179984,157.84977a52.12,52.12 0 1 1 -73.71,-1a52.13,52.13 0 0 1 73.71,1z" id="svg_38"/>
   <path class="cls-9" d="m358.979984,285.83977a9.49,9.49 0 0 1 -6.7,-2.77l-58.05,-58.03a9.48,9.48 0 0 1 13.4,-13.4l58.05,58a9.47,9.47 0 0 1 -6.7,16.17l0,0.03z" id="svg_39"/>
   <line class="cls-10" x1="240.479979" y1="156.889773" x2="243.319979" y2="159.709773" id="svg_40"/>
   <line class="cls-19" x1="249.589979" y1="165.939773" x2="271.539979" y2="187.749773" id="svg_41"/>
   <line class="cls-10" x1="274.669979" y1="190.869773" x2="277.509979" y2="193.689773" id="svg_42"/>
   <line class="cls-10" x1="317.119979" y1="161.109773" x2="236.579979" y2="227.329773" id="svg_43"/>
  </g>
 </g>
</svg>