<?xml version="1.0" encoding="utf-8"?>
<!-- Generator: Adobe Illustrator 24.0.0, SVG Export Plug-In . SVG Version: 6.00 Build 0)  -->
<svg version="1.1" id="图层_1" xmlns="http://www.w3.org/2000/svg" xmlns:xlink="http://www.w3.org/1999/xlink" x="0px" y="0px"
	 viewBox="0 0 40 40" style="enable-background:new 0 0 40 40;" xml:space="preserve">
<style type="text/css">
	.st0{fill:#0FBD8C;}
	.st1{fill:#FFFFFF;}
	.st2{fill:#1E74F2;}
</style>
<title>扩展插件配图设计</title>
<g id="_15._Box2d">
	<!--<g>
		<rect class="st0" width="40" height="40"/>
	</g>-->
	<g>
		<path class="st1" d="M15.3,6.1h9.3c1.3,0,2.3,1,2.3,2.3v9.3c0,1.3-1,2.3-2.3,2.3h-9.3c-1.3,0-2.3-1-2.3-2.3V8.4
			C13.1,7.2,14.1,6.1,15.3,6.1z"/>
		<path class="st2" d="M24.7,21.1h-9.3c-1.9,0-3.4-1.5-3.4-3.4V8.4c0-1.9,1.5-3.4,3.4-3.4h9.3c1.9,0,3.4,1.5,3.4,3.4v9.3
			C28.1,19.7,26.6,21.1,24.7,21.1z M15.3,7.3c-0.7,0-1.1,0.5-1.1,1.1v9.3c0,0.7,0.5,1.1,1.1,1.1h9.3c0.7,0,1.1-0.5,1.1-1.1V8.4
			c0-0.7-0.5-1.1-1.1-1.1H15.3z"/>
	</g>
	<g>
		<path class="st1" d="M8.4,20h9.3c1.3,0,2.3,1,2.3,2.3v9.3c0,1.3-1,2.3-2.3,2.3H8.4c-1.2,0-2.3-1-2.3-2.3v-9.3
			C6.1,21,7.2,20,8.4,20z"/>
		<path class="st2" d="M17.7,35H8.4C6.5,35,5,33.5,5,31.6v-9.3c0-1.9,1.5-3.4,3.4-3.4h9.3c1.9,0,3.4,1.5,3.4,3.4v9.3
			C21.1,33.5,19.7,35,17.7,35z M8.4,21.1c-0.7,0-1.1,0.5-1.1,1.1v9.3c0,0.7,0.5,1.1,1.1,1.1h9.3c0.7,0,1.1-0.5,1.1-1.1v-9.3
			c0-0.7-0.5-1.1-1.1-1.1H8.4z"/>
	</g>
	<g>
		<path class="st1" d="M22.3,20h9.3c1.3,0,2.3,1,2.3,2.3v9.3c0,1.3-1,2.3-2.3,2.3h-9.3c-1.3,0-2.3-1-2.3-2.3v-9.3
			C20,21,21,20,22.3,20z"/>
		<path class="st2" d="M31.6,35h-9.3c-1.9,0-3.4-1.5-3.4-3.4v-9.3c0-1.9,1.5-3.4,3.4-3.4h9.3c1.9,0,3.4,1.5,3.4,3.4v9.3
			C35,33.5,33.5,35,31.6,35z M22.3,21.1c-0.7,0-1.1,0.5-1.1,1.1v9.3c0,0.7,0.5,1.1,1.1,1.1h9.3c0.7,0,1.1-0.5,1.1-1.1v-9.3
			c0-0.7-0.5-1.1-1.1-1.1H22.3z"/>
	</g>
</g>
</svg>
