<svg width="600" height="372" xmlns="http://www.w3.org/2000/svg" xmlns:xlink="http://www.w3.org/1999/xlink">
 <!-- Created with Method Draw - http://github.com/duopixel/Method-Draw/ -->
 <defs>
  <symbol id="svg_1" viewBox="0,0,727.20574,406.77085" height="406.77085" width="727.20574" xmlns:xlink="http://www.w3.org/1999/xlink">
   <g transform="translate(127.20574,29.99999)">
    <g stroke-dashoffset="0" stroke-miterlimit="10" fill-rule="nonzero">
     <path fill="#2ea4a4" d="m-120,376.77086l0,-406.77085l720,0l0,406.77085l-720,0z"/>
     <path stroke-width="0" fill="#228080" d="m386.19763,70.46178l24.02718,-50.58354l50.58354,24.02718l-24.02718,50.58354l-50.58354,-24.02718z"/>
     <path stroke-width="0" stroke="#1a6262" fill="#228080" d="m-14.42914,358.76969l-24.1194,-54.93864l54.93864,-24.1194l24.1194,54.93864l-54.93864,24.1194z"/>
     <path stroke-width="0" stroke="#1a6262" fill="#228080" d="m-2.98971,177.66482l-24.47199,-42.45141l42.45141,-24.47199l24.47199,42.45141l-42.45141,24.47199z"/>
     <path stroke-width="0" fill="#228080" d="m466.64806,193.63698l-27.18348,-57.38735l57.38735,-27.18348l27.18348,57.38735l-57.38735,27.18348z"/>
     <path stroke-width="0" fill="#228080" d="m365.98439,271.8296l-20.71243,-64.24364l64.24364,-20.71243l20.71243,64.24364l-64.24364,20.71243z"/>
     <path stroke-width="0" fill="#228080" d="m253.42076,141.70104l6.47975,-65.1787l65.1787,6.47975l-6.47975,65.1787l-65.1787,-6.47975z"/>
     <path stroke-width="0" fill="#228080" d="m91.00522,268.05229l43.52003,-54.42148l54.42149,43.52003l-43.52003,54.42149l-54.42149,-43.52004z"/>
     <path stroke-width="0" stroke="#1a6262" fill="#228080" d="m82.65339,127.7842l17.66397,-51.02925l51.02925,17.66397l-17.66397,51.02925l-51.02925,-17.66397z"/>
     <path stroke-width="0" fill="#228080" d="m72.14371,216.09957l-11.14172,-27.8543l27.8543,-11.14172l11.14172,27.8543l-27.8543,11.14172z"/>
     <path stroke-width="0" fill="#228080" d="m287.14371,311.09957l-11.14172,-27.8543l27.8543,-11.14172l11.14172,27.8543l-27.8543,11.14172z"/>
     <g>
      <path stroke-width="17.5" stroke="#000000" stroke-opacity="0.14902" fill="none" d="m311.49531,126.37853l0,107.24298c0,9.87079 -8.00304,17.87383 -17.87383,17.87383l-107.24297,0c-9.87079,0 -17.87383,-8.00304 -17.87383,-17.87383l0,-107.24297c0,-9.8708 8.00304,-17.87383 17.87383,-17.87383l107.24297,0c9.87079,0 17.87383,8.00303 17.87383,17.87383l0,-0.00001z"/>
      <path stroke-width="7.5" stroke="#ffffff" fill="#52a3a3" d="m311.49531,126.37853l0,107.24298c0,9.87079 -8.00304,17.87383 -17.87383,17.87383l-107.24297,0c-9.87079,0 -17.87383,-8.00304 -17.87383,-17.87383l0,-107.24297c0,-9.8708 8.00304,-17.87383 17.87383,-17.87383l107.24297,0c9.87079,0 17.87383,8.00303 17.87383,17.87383l0,-0.00001z"/>
      <path stroke="#ffffff" fill="#ffffff" d="m286.18157,229.65727c-0.94385,0 -1.88771,-0.3607 -2.60911,-1.07911l-92.10334,-92.10635c-1.43983,-1.43983 -1.43983,-3.77839 0,-5.21822c1.43983,-1.43983 3.77839,-1.43983 5.21822,0l92.10334,92.10334c1.43983,1.43983 1.43983,3.77839 0,5.21822c-0.72142,0.71841 -1.66527,1.08211 -2.60911,1.08211l0,0.00001z"/>
      <path stroke-width="7.5" stroke="#ffffff" fill="#499999" d="m232.15668,151.64542c0,11.20895 -9.08679,20.29574 -20.29575,20.29574c-11.20895,0 -20.29575,-9.08678 -20.29575,-20.29574c0,-11.20895 9.08679,-20.29575 20.29575,-20.29575c11.20895,0 20.29575,9.08679 20.29575,20.29575z"/>
      <path stroke-width="7.5" stroke="#ffffff" fill="#378a8a" d="m229.34339,193.54522c-10.90903,-2.57596 -17.6643,-13.50772 -15.08832,-24.41673c2.57596,-10.90903 13.50772,-17.6643 24.41674,-15.08832c10.90903,2.57596 17.6643,13.50772 15.08832,24.41673c-2.57596,10.90903 -13.50772,17.6643 -24.41674,15.08832z"/>
      <path stroke-width="7.5" stroke="#ffffff" fill="#298a8a" d="m276.4424,195.92813c0,11.20895 -9.08979,20.29874 -20.29874,20.29874c-11.20895,0 -20.29575,-9.0898 -20.29575,-20.29874c0,-11.20895 9.08679,-20.29575 20.29575,-20.29575c11.20895,0 20.29874,9.0898 20.29874,20.29575z"/>
      <path stroke="#ffffff" fill="#ffffff" d="m286.33139,229.8071c-0.94385,0 -1.88771,-0.3607 -2.60911,-1.07911l-22.60426,-22.60425c-1.44284,-1.43983 -1.44284,-3.77839 0,-5.21822c1.44284,-1.43983 3.77538,-1.43983 5.21822,0l22.60426,22.60425c1.43983,1.43983 1.43983,3.77839 0,5.21822c-0.72142,0.71541 -1.66527,1.07911 -2.60911,1.07911z"/>
     </g>
     <g>
      <path stroke-width="10" stroke="#000000" stroke-opacity="0.14902" fill="none" d="m168.50468,76.14034c-0.72811,2.64576 -3.326,4.49866 -6.05997,4.26306c0,0 -0.50119,-0.13825 -1.44984,-0.13059c-0.94862,0.00769 -2.44541,-0.27032 -3.81715,-0.19955c-1.37177,0.07077 -3.26425,0.08907 -5.42879,0.25573c-2.36123,0.23989 -4.69573,0.64904 -6.99999,1.21762c-5.68263,1.54823 -10.98738,4.19674 -15.65635,7.78699c-5.203,4.01014 -9.40869,9.12988 -12.37022,14.99348c-0.27827,1.00465 -1.61469,3.42032 -1.92774,4.55054l0,0c-0.22028,0.79534 -0.458,1.67001 -0.71305,2.59095l-0.54031,1.96312c-0.68551,3.00701 -1.03535,6.04657 -1.07806,9.13042c-0.0356,5.39251 0.9574,10.6743 2.96444,15.67951c0.69629,1.79126 1.51074,3.51761 2.46704,5.18462l12.45512,-7.08415c1.41761,-0.80951 3.16578,-0.67633 4.45712,0.32232c1.29135,0.99867 1.93342,2.78497 1.50646,4.3606l-10.28699,37.01562c-0.61393,2.12733 -2.83195,3.3637 -4.96572,2.77255l-37.00233,-10.25602c-1.03982,-0.28793 -1.9236,-0.98225 -2.45015,-1.92397c-0.52657,-0.94171 -0.65639,-2.05698 -0.35724,-3.09363c0.26797,-0.98205 1.00566,-1.9111 1.87817,-2.43554l13.1885,-7.43724l-0.32628,-0.37539c-1.43237,-3.0978 -2.65045,-6.30725 -3.62539,-9.57795c-2.13442,-8.06872 -2.70726,-16.51556 -1.67068,-24.79718c0.35516,-2.88546 0.93869,-5.75449 1.737,-8.54998c0.46378,-1.67441 0.94326,-3.39915 1.40704,-5.07356c0.83503,-2.28297 1.82068,-4.52119 2.9366,-6.68084c1.03417,-2.04046 2.17908,-4.03498 3.41445,-5.96027c5.05782,-7.66119 11.78759,-14.11919 19.63732,-18.87905c6.73442,-4.0001 14.20136,-6.66564 21.94339,-7.85467c3.04767,-0.41701 6.12796,-0.63219 9.20399,-0.65018c2.71578,0.12123 5.12164,0.24804 7.20049,0.55343c1.44339,0.18202 2.87921,0.44539 4.2939,0.78479l1.38252,0.38335c3.09125,0.65037 5.08025,3.68315 4.44044,6.77661l-0.08104,0.2931"/>
      <path stroke-width="0.5" fill="#ffffff" d="m168.50468,76.14034c-0.72811,2.64576 -3.326,4.49866 -6.05997,4.26306c0,0 -0.50119,-0.13825 -1.44984,-0.13059c-0.94862,0.00769 -2.44541,-0.27032 -3.81715,-0.19955c-1.37177,0.07077 -3.26425,0.08907 -5.42879,0.25573c-2.36123,0.23989 -4.69573,0.64904 -6.99999,1.21762c-5.68263,1.54823 -10.98738,4.19674 -15.65635,7.78699c-5.203,4.01014 -9.40869,9.12988 -12.37022,14.99348c-0.27827,1.00465 -1.61469,3.42032 -1.92774,4.55054l0,0c-0.22028,0.79534 -0.458,1.67001 -0.71305,2.59095l-0.54031,1.96312c-0.68551,3.00701 -1.03535,6.04657 -1.07806,9.13042c-0.0356,5.39251 0.9574,10.6743 2.96444,15.67951c0.69629,1.79126 1.51074,3.51761 2.46704,5.18462l12.45512,-7.08415c1.41761,-0.80951 3.16578,-0.67633 4.45712,0.32232c1.29135,0.99867 1.93342,2.78497 1.50646,4.3606l-10.28699,37.01562c-0.61393,2.12733 -2.83195,3.3637 -4.96572,2.77255l-37.00233,-10.25602c-1.03982,-0.28793 -1.9236,-0.98225 -2.45015,-1.92397c-0.52657,-0.94171 -0.65639,-2.05698 -0.35724,-3.09363c0.26797,-0.98205 1.00566,-1.9111 1.87817,-2.43554l13.1885,-7.43724l-0.32628,-0.37539c-1.43237,-3.0978 -2.65045,-6.30725 -3.62539,-9.57795c-2.13442,-8.06872 -2.70726,-16.51556 -1.67068,-24.79718c0.35516,-2.88546 0.93869,-5.75449 1.737,-8.54998c0.46378,-1.67441 0.94326,-3.39915 1.40704,-5.07356c0.83503,-2.28297 1.82068,-4.52119 2.9366,-6.68084c1.03417,-2.04046 2.17908,-4.03498 3.41445,-5.96027c5.05782,-7.66119 11.78759,-14.11919 19.63732,-18.87905c6.73442,-4.0001 14.20136,-6.66564 21.94339,-7.85467c3.04767,-0.41701 6.12796,-0.63219 9.20399,-0.65018c2.71578,0.12123 5.12164,0.24804 7.20049,0.55343c1.44339,0.18202 2.87921,0.44539 4.2939,0.78479l1.38252,0.38335c3.09125,0.65037 5.08025,3.68315 4.44044,6.77661l-0.08104,0.2931"/>
     </g>
     <g>
      <path stroke-width="10" stroke="#000000" stroke-opacity="0.14902" fill="none" d="m311.49531,283.85969c0.72811,-2.64576 3.32599,-4.49866 6.05996,-4.26306c0,0 0.50119,0.13825 1.44984,0.13059c0.94862,-0.00769 2.44541,0.27032 3.81714,0.19955c1.37176,-0.07077 3.26425,-0.08906 5.4288,-0.25572c2.36123,-0.23989 4.69573,-0.64905 6.99999,-1.21762c5.68262,-1.54824 10.98737,-4.19674 15.65634,-7.78699c5.20301,-4.01014 9.40869,-9.12988 12.37022,-14.99348c0.27826,-1.00466 1.61469,-3.42032 1.92774,-4.55054l0,0c0.22028,-0.79534 0.45801,-1.67001 0.71305,-2.59095l0.54031,-1.96311c0.6855,-3.00701 1.03535,-6.04657 1.07805,-9.13043c0.0356,-5.3925 -0.9574,-10.67429 -2.96444,-15.67951c-0.69629,-1.79127 -1.51074,-3.51762 -2.46704,-5.18463l-12.45511,7.08415c-1.41761,0.80951 -3.16579,0.67633 -4.45713,-0.32232c-1.29135,-0.99866 -1.93342,-2.78497 -1.50646,-4.3606l10.28699,-37.01562c0.61394,-2.12733 2.83195,-3.3637 4.96573,-2.77255l37.00232,10.25601c1.03981,0.28793 1.92361,0.98225 2.45015,1.92397c0.52657,0.94171 0.65639,2.05698 0.35724,3.09363c-0.26797,0.98205 -1.00566,1.9111 -1.87817,2.43554l-13.1885,7.43724l0.32628,0.37539c1.43237,3.0978 2.65045,6.30725 3.62539,9.57795c2.13443,8.06872 2.70726,16.51557 1.67068,24.79719c-0.35516,2.88546 -0.93869,5.7545 -1.73701,8.54999c-0.46378,1.67442 -0.94326,3.39914 -1.40704,5.07355c-0.83503,2.28297 -1.82068,4.52119 -2.9366,6.68083c-1.03417,2.04046 -2.17908,4.03498 -3.41445,5.96027c-5.05782,7.66118 -11.78759,14.11919 -19.63732,18.87905c-6.73442,4.0001 -14.20136,6.66564 -21.94339,7.85467c-3.04767,0.41701 -6.12796,0.63218 -9.20398,0.65017c-2.71578,-0.12122 -5.12164,-0.24803 -7.20049,-0.55342c-1.44339,-0.18202 -2.87921,-0.4454 -4.2939,-0.7848l-1.38252,-0.38335c-3.09125,-0.65037 -5.08025,-3.68315 -4.44043,-6.77661l0.08104,-0.2931"/>
      <path stroke-width="0.5" fill="#ffffff" d="m311.49531,283.85969c0.72811,-2.64576 3.32599,-4.49866 6.05996,-4.26306c0,0 0.50119,0.13825 1.44984,0.13059c0.94862,-0.00769 2.44541,0.27032 3.81714,0.19955c1.37176,-0.07077 3.26425,-0.08906 5.4288,-0.25572c2.36123,-0.23989 4.69573,-0.64905 6.99999,-1.21762c5.68262,-1.54824 10.98737,-4.19674 15.65634,-7.78699c5.20301,-4.01014 9.40869,-9.12988 12.37022,-14.99348c0.27826,-1.00466 1.61469,-3.42032 1.92774,-4.55054l0,0c0.22028,-0.79534 0.45801,-1.67001 0.71305,-2.59095l0.54031,-1.96311c0.6855,-3.00701 1.03535,-6.04657 1.07805,-9.13043c0.0356,-5.3925 -0.9574,-10.67429 -2.96444,-15.67951c-0.69629,-1.79127 -1.51074,-3.51762 -2.46704,-5.18463l-12.45511,7.08415c-1.41761,0.80951 -3.16579,0.67633 -4.45713,-0.32232c-1.29135,-0.99866 -1.93342,-2.78497 -1.50646,-4.3606l10.28699,-37.01562c0.61394,-2.12733 2.83195,-3.3637 4.96573,-2.77255l37.00232,10.25601c1.03981,0.28793 1.92361,0.98225 2.45015,1.92397c0.52657,0.94171 0.65639,2.05698 0.35724,3.09363c-0.26797,0.98205 -1.00566,1.9111 -1.87817,2.43554l-13.1885,7.43724l0.32628,0.37539c1.43237,3.0978 2.65045,6.30725 3.62539,9.57795c2.13443,8.06872 2.70726,16.51557 1.67068,24.79719c-0.35516,2.88546 -0.93869,5.7545 -1.73701,8.54999c-0.46378,1.67442 -0.94326,3.39914 -1.40704,5.07355c-0.83503,2.28297 -1.82068,4.52119 -2.9366,6.68083c-1.03417,2.04046 -2.17908,4.03498 -3.41445,5.96027c-5.05782,7.66118 -11.78759,14.11919 -19.63732,18.87905c-6.73442,4.0001 -14.20136,6.66564 -21.94339,7.85467c-3.04767,0.41701 -6.12796,0.63218 -9.20398,0.65017c-2.71578,-0.12122 -5.12164,-0.24803 -7.20049,-0.55342c-1.44339,-0.18202 -2.87921,-0.4454 -4.2939,-0.7848l-1.38252,-0.38335c-3.09125,-0.65037 -5.08025,-3.68315 -4.44043,-6.77661l0.08104,-0.2931"/>
     </g>
     <path stroke-width="0" stroke="#1a6262" fill="#228080" d="m34.62536,70.97762l-26.82776,-53.66112l53.66112,-26.82777l26.82777,53.66113l-53.66113,26.82776z"/>
     <path stroke-width="0" fill="#228080" d="m479.87326,282.80471l-18.01486,-31.67822l31.67822,-18.01485l18.01486,31.67821l-31.67822,18.01486z"/>
     <path stroke-width="0" fill="#228080" d="m-89.21928,272.82982l-37.98646,-60.99408l60.99409,-37.98646l37.98645,60.99408l-60.99408,37.98646z"/>
     <path stroke-width="0" stroke="#1a6262" fill="#228080" d="m-92.75485,102.58974l-33.80595,-58.64297l58.64298,-33.80595l33.80595,58.64297l-58.64298,33.80595z"/>
     <path stroke-width="0" stroke="#1a6262" fill="#228080" d="m205.18554,56.95104l-21.80503,-57.72946l56.19705,-23.02162l21.80503,57.72947l-56.19705,23.02161z"/>
     <path stroke-width="0" stroke="#1a6262" fill="#228080" d="m400.38074,376.77086l-21.80503,-57.72946l56.19705,-23.02163l21.80503,57.72947l-56.19705,23.02162z"/>
     <path stroke-width="0" stroke="#1a6262" fill="#228080" d="m522.00236,77.97206l-21.80503,-57.72946l56.19705,-23.02162l21.80503,57.72947l-56.19705,23.02161z"/>
     <path stroke-width="0" stroke="#1a6262" fill="#228080" d="m206.26244,352.74683l-13.87291,-36.72894l35.75399,-14.64694l13.87291,36.72895l-35.75399,14.64693z"/>
     <path stroke-width="0" fill="#228080" d="m382.13442,155.00324l-23.60967,-18.50901l18.50901,-23.60967l23.60967,18.50901l-18.50901,23.60967z"/>
     <path stroke-width="0" fill="#228080" d="m335.58787,37.88612l-23.60967,-18.509l18.50901,-23.60967l23.60967,18.509l-18.50901,23.60967z"/>
     <path stroke-width="0" fill="#228080" d="m39.04216,248.65093l-29.42937,-8.78647l8.78647,-29.42937l29.42937,8.78647l-8.78647,29.42937z"/>
     <path stroke-width="0" fill="#228080" d="m99.45764,350.7811l-26.80084,-13.48016l13.48016,-26.80084l26.80084,13.48016l-13.48016,26.80084z"/>
     <path stroke-width="0" fill="#228080" d="m536.39458,349.2796l-26.80084,-13.48015l13.48016,-26.80084l26.80084,13.48015l-13.48016,26.80084z"/>
     <path stroke-width="0" fill="#228080" d="m546.59993,230.21507l-20.34413,-22.04805l22.04805,-20.34412l20.34412,22.04804l-22.04804,20.34413z"/>
    </g>
   </g>
  </symbol>
 </defs>
 <g>
  <title>background</title>
  <rect fill="#fff" id="canvas_background" height="374" width="602" y="-1" x="-1"/>
  <g display="none" overflow="visible" y="0" x="0" height="100%" width="100%" id="canvasGrid">
   <rect fill="url(#gridpattern)" stroke-width="0" y="0" x="0" height="100%" width="100%"/>
  </g>
 </g>
 <g>
  <title>Layer 1</title>
  <use x="-66" y="-19" xlink:href="#svg_1" id="svg_2"/>
 </g>
</svg>